<?xml version="1.0" encoding="UTF-8"?>
<svg xmlns="http://www.w3.org/2000/svg" xmlns:xlink="http://www.w3.org/1999/xlink" width="1920" height="1080" viewBox="0 0 1920 1080">
<defs>
<g>
<g id="glyph-0-0">
<path d="M 0.0859375 -0.136719 C 0.359375 -0.164062 0.539062 -0.214844 0.621094 -0.285156 C 0.703125 -0.355469 0.742188 -0.53125 0.742188 -0.8125 L 0.742188 -4.148438 C 0.742188 -4.414062 0.703125 -4.589844 0.621094 -4.671875 C 0.542969 -4.753906 0.363281 -4.804688 0.0859375 -4.824219 L 0.0859375 -4.960938 L 2.203125 -4.960938 L 2.203125 -4.824219 C 1.929688 -4.808594 1.742188 -4.761719 1.648438 -4.6875 C 1.554688 -4.613281 1.507812 -4.449219 1.507812 -4.199219 L 1.507812 -0.597656 C 1.507812 -0.515625 1.523438 -0.449219 1.550781 -0.402344 C 1.578125 -0.355469 1.640625 -0.324219 1.734375 -0.3125 C 1.792969 -0.304688 1.851562 -0.300781 1.914062 -0.296875 C 1.976562 -0.292969 2.09375 -0.292969 2.261719 -0.292969 C 2.929688 -0.292969 3.378906 -0.347656 3.613281 -0.457031 C 3.847656 -0.566406 4.074219 -0.847656 4.296875 -1.300781 L 4.484375 -1.300781 L 4.121094 0 L 0.0859375 0 Z "/>
</g>
<g id="glyph-0-1">
<path d="M 0.617188 -4.726562 C 0.617188 -4.832031 0.652344 -4.921875 0.726562 -5 C 0.796875 -5.074219 0.890625 -5.113281 0.996094 -5.113281 C 1.101562 -5.113281 1.191406 -5.074219 1.265625 -5 C 1.339844 -4.925781 1.375 -4.835938 1.375 -4.726562 C 1.375 -4.621094 1.339844 -4.53125 1.265625 -4.457031 C 1.191406 -4.382812 1.101562 -4.347656 0.996094 -4.347656 C 0.890625 -4.347656 0.796875 -4.382812 0.726562 -4.457031 C 0.652344 -4.53125 0.617188 -4.621094 0.617188 -4.726562 Z M 0.148438 -0.101562 C 0.410156 -0.125 0.574219 -0.171875 0.640625 -0.234375 C 0.710938 -0.300781 0.742188 -0.476562 0.742188 -0.761719 L 0.742188 -2.507812 C 0.742188 -2.667969 0.734375 -2.777344 0.710938 -2.839844 C 0.675781 -2.9375 0.597656 -2.988281 0.480469 -2.988281 C 0.453125 -2.988281 0.425781 -2.984375 0.402344 -2.980469 C 0.375 -2.976562 0.300781 -2.957031 0.179688 -2.921875 L 0.179688 -3.035156 L 0.335938 -3.085938 C 0.765625 -3.226562 1.0625 -3.332031 1.230469 -3.402344 C 1.296875 -3.429688 1.34375 -3.445312 1.363281 -3.445312 C 1.367188 -3.429688 1.371094 -3.410156 1.371094 -3.390625 L 1.371094 -0.761719 C 1.371094 -0.484375 1.402344 -0.308594 1.46875 -0.238281 C 1.535156 -0.167969 1.6875 -0.121094 1.925781 -0.101562 L 1.925781 0 L 0.148438 0 Z "/>
</g>
<g id="glyph-0-2">
<path d="M 0.136719 -0.101562 C 0.308594 -0.125 0.429688 -0.167969 0.5 -0.234375 C 0.570312 -0.296875 0.605469 -0.441406 0.605469 -0.667969 L 0.605469 -2.523438 C 0.605469 -2.679688 0.589844 -2.789062 0.558594 -2.851562 C 0.511719 -2.945312 0.417969 -2.992188 0.273438 -2.992188 C 0.253906 -2.992188 0.230469 -2.992188 0.207031 -2.988281 C 0.183594 -2.984375 0.15625 -2.980469 0.121094 -2.976562 L 0.121094 -3.105469 C 0.222656 -3.132812 0.457031 -3.210938 0.832031 -3.332031 L 1.175781 -3.445312 C 1.191406 -3.445312 1.203125 -3.441406 1.207031 -3.429688 C 1.210938 -3.417969 1.210938 -3.398438 1.210938 -3.375 L 1.210938 -2.839844 C 1.4375 -3.046875 1.613281 -3.191406 1.738281 -3.269531 C 1.929688 -3.390625 2.128906 -3.449219 2.332031 -3.449219 C 2.5 -3.449219 2.648438 -3.402344 2.785156 -3.308594 C 3.050781 -3.121094 3.183594 -2.789062 3.183594 -2.3125 L 3.183594 -0.605469 C 3.183594 -0.429688 3.21875 -0.300781 3.289062 -0.222656 C 3.359375 -0.144531 3.476562 -0.105469 3.644531 -0.101562 L 3.644531 0 L 2.078125 0 L 2.078125 -0.101562 C 2.257812 -0.125 2.382812 -0.175781 2.453125 -0.25 C 2.523438 -0.324219 2.558594 -0.488281 2.558594 -0.734375 L 2.558594 -2.300781 C 2.558594 -2.511719 2.519531 -2.683594 2.441406 -2.820312 C 2.363281 -2.960938 2.21875 -3.027344 2.011719 -3.027344 C 1.867188 -3.027344 1.71875 -2.980469 1.570312 -2.882812 C 1.488281 -2.828125 1.378906 -2.734375 1.25 -2.605469 L 1.25 -0.554688 C 1.25 -0.378906 1.289062 -0.257812 1.367188 -0.199219 C 1.445312 -0.140625 1.566406 -0.109375 1.734375 -0.101562 L 1.734375 0 L 0.136719 0 Z "/>
</g>
<g id="glyph-0-3">
<path d="M 1.71875 -3.433594 C 2.0625 -3.433594 2.363281 -3.316406 2.621094 -3.078125 C 2.878906 -2.839844 3.011719 -2.503906 3.011719 -2.066406 L 0.683594 -2.066406 C 0.707031 -1.5 0.835938 -1.085938 1.070312 -0.828125 C 1.300781 -0.570312 1.574219 -0.4375 1.894531 -0.4375 C 2.148438 -0.4375 2.367188 -0.507812 2.542969 -0.640625 C 2.71875 -0.773438 2.878906 -0.964844 3.027344 -1.210938 L 3.15625 -1.167969 C 3.054688 -0.859375 2.871094 -0.570312 2.59375 -0.308594 C 2.320312 -0.0429688 1.984375 0.0859375 1.585938 0.0859375 C 1.125 0.0859375 0.773438 -0.0859375 0.523438 -0.433594 C 0.273438 -0.78125 0.148438 -1.179688 0.148438 -1.628906 C 0.148438 -2.121094 0.292969 -2.542969 0.582031 -2.898438 C 0.871094 -3.257812 1.25 -3.433594 1.71875 -3.433594 Z M 1.503906 -3.167969 C 1.226562 -3.167969 1.015625 -3.042969 0.867188 -2.796875 C 0.789062 -2.664062 0.734375 -2.5 0.699219 -2.300781 L 2.246094 -2.300781 C 2.21875 -2.542969 2.171875 -2.726562 2.105469 -2.84375 C 1.984375 -3.058594 1.785156 -3.167969 1.503906 -3.167969 Z "/>
</g>
<g id="glyph-0-4">
<path d="M 2.148438 -2.027344 C 1.867188 -1.9375 1.636719 -1.832031 1.453125 -1.722656 C 1.101562 -1.503906 0.925781 -1.257812 0.925781 -0.980469 C 0.925781 -0.757812 1 -0.59375 1.144531 -0.492188 C 1.242188 -0.421875 1.347656 -0.386719 1.464844 -0.386719 C 1.625 -0.386719 1.78125 -0.433594 1.929688 -0.523438 C 2.078125 -0.613281 2.148438 -0.730469 2.148438 -0.867188 Z M 0.273438 -0.730469 C 0.273438 -1.082031 0.453125 -1.378906 0.804688 -1.613281 C 1.03125 -1.761719 1.476562 -1.960938 2.148438 -2.210938 L 2.148438 -2.523438 C 2.148438 -2.773438 2.125 -2.945312 2.078125 -3.042969 C 1.992188 -3.207031 1.820312 -3.289062 1.558594 -3.289062 C 1.433594 -3.289062 1.316406 -3.257812 1.203125 -3.195312 C 1.09375 -3.128906 1.035156 -3.039062 1.035156 -2.921875 C 1.035156 -2.894531 1.042969 -2.84375 1.054688 -2.773438 C 1.066406 -2.703125 1.074219 -2.660156 1.074219 -2.640625 C 1.074219 -2.503906 1.027344 -2.410156 0.9375 -2.355469 C 0.886719 -2.324219 0.824219 -2.308594 0.753906 -2.308594 C 0.644531 -2.308594 0.558594 -2.34375 0.5 -2.414062 C 0.441406 -2.488281 0.414062 -2.566406 0.414062 -2.65625 C 0.414062 -2.828125 0.519531 -3.003906 0.730469 -3.191406 C 0.941406 -3.378906 1.25 -3.472656 1.660156 -3.472656 C 2.132812 -3.472656 2.453125 -3.316406 2.621094 -3.011719 C 2.710938 -2.84375 2.757812 -2.597656 2.757812 -2.273438 L 2.757812 -0.804688 C 2.757812 -0.664062 2.765625 -0.566406 2.785156 -0.511719 C 2.816406 -0.417969 2.882812 -0.371094 2.984375 -0.371094 C 3.039062 -0.371094 3.085938 -0.378906 3.125 -0.394531 C 3.160156 -0.414062 3.222656 -0.453125 3.3125 -0.519531 L 3.3125 -0.328125 C 3.234375 -0.234375 3.152344 -0.15625 3.0625 -0.09375 C 2.925781 0 2.785156 0.0429688 2.644531 0.0429688 C 2.476562 0.0429688 2.359375 -0.0078125 2.285156 -0.117188 C 2.210938 -0.226562 2.167969 -0.351562 2.160156 -0.5 C 1.976562 -0.339844 1.816406 -0.222656 1.683594 -0.144531 C 1.460938 -0.0117188 1.25 0.0546875 1.050781 0.0546875 C 0.839844 0.0546875 0.660156 -0.0195312 0.503906 -0.167969 C 0.351562 -0.316406 0.273438 -0.5 0.273438 -0.730469 Z "/>
</g>
<g id="glyph-0-5">
<path d="M 0.03125 -0.121094 C 0.257812 -0.140625 0.40625 -0.179688 0.480469 -0.238281 C 0.554688 -0.300781 0.589844 -0.425781 0.589844 -0.621094 L 0.589844 -2.273438 C 0.589844 -2.515625 0.566406 -2.6875 0.523438 -2.792969 C 0.476562 -2.894531 0.394531 -2.949219 0.273438 -2.949219 C 0.25 -2.949219 0.21875 -2.945312 0.175781 -2.9375 C 0.136719 -2.933594 0.09375 -2.925781 0.0507812 -2.914062 L 0.0507812 -3.035156 C 0.191406 -3.085938 0.332031 -3.132812 0.480469 -3.1875 C 0.625 -3.238281 0.726562 -3.273438 0.785156 -3.296875 C 0.90625 -3.34375 1.03125 -3.394531 1.160156 -3.453125 C 1.179688 -3.453125 1.1875 -3.445312 1.191406 -3.433594 C 1.195312 -3.421875 1.199219 -3.398438 1.199219 -3.359375 L 1.199219 -2.757812 C 1.355469 -2.976562 1.503906 -3.144531 1.648438 -3.265625 C 1.792969 -3.386719 1.945312 -3.449219 2.101562 -3.449219 C 2.226562 -3.449219 2.328125 -3.414062 2.40625 -3.339844 C 2.484375 -3.265625 2.523438 -3.171875 2.523438 -3.058594 C 2.523438 -2.957031 2.492188 -2.875 2.433594 -2.804688 C 2.375 -2.738281 2.296875 -2.703125 2.207031 -2.703125 C 2.113281 -2.703125 2.023438 -2.746094 1.929688 -2.832031 C 1.835938 -2.917969 1.761719 -2.960938 1.707031 -2.960938 C 1.621094 -2.960938 1.515625 -2.890625 1.390625 -2.753906 C 1.265625 -2.613281 1.203125 -2.472656 1.203125 -2.324219 L 1.203125 -0.671875 C 1.203125 -0.464844 1.253906 -0.316406 1.351562 -0.234375 C 1.449219 -0.152344 1.609375 -0.117188 1.839844 -0.121094 L 1.839844 0 L 0.03125 0 Z "/>
</g>
<g id="glyph-0-6">
<rect x="0" y="0" width="0" height="0" mask="url(#mask-0)"/>
</g>
<g id="glyph-0-7">
<path d="M 3.347656 -1.925781 L 2.480469 -3.992188 L 1.621094 -1.925781 Z M 0.109375 0 L 0.109375 -0.136719 C 0.300781 -0.15625 0.449219 -0.230469 0.542969 -0.355469 C 0.640625 -0.480469 0.804688 -0.816406 1.039062 -1.371094 L 2.605469 -5.050781 L 2.75 -5.050781 L 4.617188 -0.796875 C 4.742188 -0.515625 4.84375 -0.339844 4.917969 -0.273438 C 4.992188 -0.207031 5.117188 -0.160156 5.292969 -0.136719 L 5.292969 0 L 3.382812 0 L 3.382812 -0.136719 C 3.601562 -0.15625 3.746094 -0.179688 3.808594 -0.207031 C 3.871094 -0.234375 3.902344 -0.304688 3.902344 -0.414062 C 3.902344 -0.449219 3.890625 -0.515625 3.867188 -0.609375 C 3.84375 -0.703125 3.808594 -0.796875 3.765625 -0.902344 L 3.453125 -1.621094 L 1.492188 -1.621094 C 1.296875 -1.132812 1.179688 -0.832031 1.140625 -0.722656 C 1.101562 -0.613281 1.085938 -0.527344 1.085938 -0.464844 C 1.085938 -0.339844 1.136719 -0.25 1.238281 -0.203125 C 1.300781 -0.171875 1.421875 -0.148438 1.597656 -0.136719 L 1.597656 0 Z "/>
</g>
<g id="glyph-0-8">
<path d="M 0.152344 -0.101562 C 0.378906 -0.125 0.535156 -0.171875 0.617188 -0.238281 C 0.695312 -0.308594 0.734375 -0.445312 0.734375 -0.648438 L 0.734375 -4.226562 C 0.734375 -4.386719 0.722656 -4.5 0.695312 -4.558594 C 0.648438 -4.660156 0.546875 -4.714844 0.398438 -4.714844 C 0.363281 -4.714844 0.328125 -4.710938 0.289062 -4.703125 C 0.246094 -4.695312 0.195312 -4.683594 0.136719 -4.667969 L 0.136719 -4.789062 C 0.464844 -4.878906 0.863281 -4.996094 1.324219 -5.140625 C 1.34375 -5.140625 1.351562 -5.132812 1.355469 -5.121094 C 1.359375 -5.105469 1.363281 -5.074219 1.363281 -5.023438 L 1.363281 -0.632812 C 1.363281 -0.421875 1.398438 -0.285156 1.472656 -0.222656 C 1.546875 -0.160156 1.695312 -0.121094 1.925781 -0.101562 L 1.925781 0 L 0.152344 0 Z "/>
</g>
<g id="glyph-0-9">
<path d="M 0.734375 0.675781 C 0.734375 0.882812 0.851562 1.023438 1.082031 1.101562 C 1.3125 1.179688 1.578125 1.21875 1.875 1.21875 C 2.28125 1.21875 2.609375 1.148438 2.863281 1.007812 C 3.117188 0.867188 3.246094 0.695312 3.246094 0.492188 C 3.246094 0.328125 3.140625 0.21875 2.9375 0.164062 C 2.808594 0.132812 2.570312 0.113281 2.214844 0.109375 C 2.125 0.105469 2.03125 0.105469 1.929688 0.101562 C 1.828125 0.0976562 1.738281 0.09375 1.65625 0.0859375 C 1.601562 0.0859375 1.515625 0.0742188 1.394531 0.0585938 C 1.273438 0.0429688 1.1875 0.0273438 1.128906 0.015625 C 1.097656 0.015625 1.027344 0.0898438 0.910156 0.246094 C 0.792969 0.402344 0.734375 0.546875 0.734375 0.675781 Z M 1.210938 -1.230469 C 0.988281 -1.304688 0.816406 -1.433594 0.695312 -1.621094 C 0.570312 -1.808594 0.507812 -2.023438 0.507812 -2.257812 C 0.507812 -2.542969 0.621094 -2.8125 0.851562 -3.070312 C 1.078125 -3.324219 1.398438 -3.453125 1.8125 -3.453125 C 1.992188 -3.453125 2.1875 -3.410156 2.402344 -3.328125 C 2.617188 -3.242188 2.824219 -3.199219 3.019531 -3.199219 C 3.070312 -3.199219 3.148438 -3.203125 3.253906 -3.207031 C 3.359375 -3.210938 3.433594 -3.210938 3.480469 -3.210938 L 3.523438 -3.210938 L 3.523438 -2.914062 L 2.890625 -2.914062 C 2.933594 -2.8125 2.96875 -2.722656 2.992188 -2.648438 C 3.035156 -2.507812 3.054688 -2.371094 3.054688 -2.246094 C 3.054688 -1.96875 2.9375 -1.710938 2.707031 -1.476562 C 2.476562 -1.242188 2.167969 -1.128906 1.777344 -1.128906 C 1.714844 -1.128906 1.605469 -1.140625 1.445312 -1.160156 C 1.375 -1.160156 1.28125 -1.101562 1.167969 -0.980469 C 1.050781 -0.863281 0.992188 -0.765625 0.992188 -0.6875 C 0.992188 -0.609375 1.078125 -0.554688 1.25 -0.515625 C 1.363281 -0.492188 1.484375 -0.480469 1.621094 -0.480469 C 2.25 -0.480469 2.675781 -0.445312 2.898438 -0.375 C 3.269531 -0.257812 3.453125 -0.0117188 3.453125 0.367188 C 3.453125 0.753906 3.238281 1.058594 2.808594 1.289062 C 2.375 1.519531 1.941406 1.632812 1.5 1.632812 C 1.101562 1.632812 0.785156 1.550781 0.550781 1.390625 C 0.316406 1.226562 0.199219 1.058594 0.199219 0.878906 C 0.199219 0.789062 0.230469 0.703125 0.292969 0.621094 C 0.355469 0.535156 0.476562 0.410156 0.660156 0.246094 L 0.902344 0.03125 L 0.945312 -0.015625 C 0.832031 -0.0585938 0.75 -0.101562 0.691406 -0.144531 C 0.59375 -0.21875 0.546875 -0.304688 0.546875 -0.402344 C 0.546875 -0.492188 0.585938 -0.59375 0.671875 -0.703125 C 0.757812 -0.8125 0.9375 -0.984375 1.210938 -1.230469 Z M 1.90625 -1.304688 C 2.042969 -1.304688 2.15625 -1.339844 2.246094 -1.414062 C 2.390625 -1.53125 2.464844 -1.734375 2.464844 -2.023438 C 2.464844 -2.257812 2.40625 -2.519531 2.285156 -2.808594 C 2.167969 -3.097656 1.972656 -3.246094 1.695312 -3.246094 C 1.457031 -3.246094 1.292969 -3.132812 1.203125 -2.902344 C 1.15625 -2.785156 1.132812 -2.636719 1.132812 -2.460938 C 1.132812 -2.164062 1.203125 -1.894531 1.347656 -1.660156 C 1.492188 -1.421875 1.679688 -1.304688 1.90625 -1.304688 Z "/>
</g>
<g id="glyph-0-10">
<path d="M 0.0273438 -4.65625 L 0.0273438 -4.78125 C 0.304688 -4.84375 0.554688 -4.917969 0.777344 -4.996094 C 1 -5.074219 1.117188 -5.113281 1.136719 -5.113281 C 1.140625 -5.097656 1.140625 -5.082031 1.140625 -5.070312 L 1.140625 -2.839844 C 1.207031 -2.957031 1.300781 -3.066406 1.429688 -3.171875 C 1.652344 -3.355469 1.910156 -3.445312 2.203125 -3.445312 C 2.5625 -3.445312 2.871094 -3.292969 3.125 -2.992188 C 3.378906 -2.6875 3.503906 -2.296875 3.503906 -1.8125 C 3.503906 -1.296875 3.339844 -0.851562 3.011719 -0.484375 C 2.679688 -0.113281 2.246094 0.0703125 1.710938 0.0703125 C 1.4375 0.0703125 1.171875 0.015625 0.910156 -0.0898438 C 0.648438 -0.199219 0.519531 -0.304688 0.519531 -0.414062 L 0.519531 -4.285156 C 0.519531 -4.425781 0.5 -4.527344 0.460938 -4.585938 C 0.421875 -4.644531 0.332031 -4.675781 0.191406 -4.675781 Z M 1.128906 -0.535156 C 1.148438 -0.40625 1.246094 -0.316406 1.414062 -0.261719 C 1.582031 -0.207031 1.730469 -0.179688 1.855469 -0.179688 C 2.199219 -0.179688 2.453125 -0.308594 2.617188 -0.5625 C 2.78125 -0.820312 2.863281 -1.128906 2.863281 -1.492188 C 2.863281 -1.855469 2.785156 -2.195312 2.632812 -2.503906 C 2.480469 -2.8125 2.230469 -2.964844 1.886719 -2.964844 C 1.710938 -2.964844 1.542969 -2.914062 1.375 -2.808594 C 1.210938 -2.703125 1.128906 -2.566406 1.128906 -2.402344 Z "/>
</g>
<g id="glyph-0-11">
<path d="M 2.117188 -4.960938 L 2.117188 -4.824219 C 1.929688 -4.820312 1.800781 -4.808594 1.730469 -4.785156 C 1.613281 -4.746094 1.554688 -4.667969 1.554688 -4.546875 C 1.554688 -4.488281 1.574219 -4.402344 1.617188 -4.292969 C 1.660156 -4.183594 1.738281 -3.996094 1.855469 -3.738281 L 3.027344 -1.128906 L 4.09375 -3.953125 C 4.140625 -4.078125 4.175781 -4.183594 4.199219 -4.269531 C 4.222656 -4.355469 4.238281 -4.425781 4.238281 -4.480469 C 4.238281 -4.625 4.175781 -4.71875 4.050781 -4.773438 C 3.976562 -4.800781 3.855469 -4.816406 3.6875 -4.824219 L 3.6875 -4.960938 L 5.222656 -4.960938 L 5.222656 -4.835938 C 5.0625 -4.8125 4.945312 -4.769531 4.871094 -4.707031 C 4.757812 -4.609375 4.640625 -4.417969 4.53125 -4.132812 L 2.871094 0.0859375 L 2.757812 0.0859375 L 0.90625 -4.035156 C 0.75 -4.382812 0.625 -4.601562 0.53125 -4.6875 C 0.4375 -4.773438 0.300781 -4.820312 0.121094 -4.835938 L 0.121094 -4.960938 Z "/>
</g>
<g id="glyph-0-12">
<path d="M 0.386719 -1.152344 L 0.507812 -1.152344 C 0.566406 -0.875 0.640625 -0.660156 0.734375 -0.511719 C 0.90625 -0.238281 1.15625 -0.101562 1.488281 -0.101562 C 1.671875 -0.101562 1.816406 -0.152344 1.921875 -0.253906 C 2.027344 -0.355469 2.078125 -0.488281 2.078125 -0.648438 C 2.078125 -0.75 2.050781 -0.851562 1.988281 -0.945312 C 1.925781 -1.039062 1.820312 -1.132812 1.667969 -1.222656 L 1.257812 -1.457031 C 0.957031 -1.617188 0.734375 -1.78125 0.59375 -1.945312 C 0.453125 -2.109375 0.382812 -2.300781 0.382812 -2.523438 C 0.382812 -2.796875 0.476562 -3.019531 0.671875 -3.195312 C 0.867188 -3.371094 1.113281 -3.460938 1.410156 -3.460938 C 1.539062 -3.460938 1.679688 -3.4375 1.835938 -3.386719 C 1.992188 -3.339844 2.078125 -3.3125 2.097656 -3.3125 C 2.140625 -3.3125 2.175781 -3.320312 2.195312 -3.332031 C 2.214844 -3.34375 2.230469 -3.363281 2.246094 -3.390625 L 2.332031 -3.390625 L 2.359375 -2.371094 L 2.246094 -2.371094 C 2.195312 -2.605469 2.128906 -2.789062 2.046875 -2.921875 C 1.894531 -3.167969 1.675781 -3.289062 1.390625 -3.289062 C 1.21875 -3.289062 1.085938 -3.234375 0.988281 -3.132812 C 0.890625 -3.027344 0.84375 -2.902344 0.84375 -2.761719 C 0.84375 -2.535156 1.011719 -2.335938 1.347656 -2.160156 L 1.832031 -1.902344 C 2.351562 -1.617188 2.609375 -1.289062 2.609375 -0.910156 C 2.609375 -0.625 2.503906 -0.386719 2.285156 -0.203125 C 2.070312 -0.0195312 1.789062 0.0703125 1.4375 0.0703125 C 1.292969 0.0703125 1.125 0.046875 0.941406 -0.00390625 C 0.753906 -0.0507812 0.644531 -0.078125 0.613281 -0.078125 C 0.582031 -0.078125 0.554688 -0.0664062 0.535156 -0.046875 C 0.511719 -0.0234375 0.496094 0 0.484375 0.03125 L 0.386719 0.03125 Z "/>
</g>
<g id="glyph-0-13">
<path d="M 1.160156 -3.390625 L 1.160156 -1.046875 C 1.160156 -0.882812 1.183594 -0.75 1.230469 -0.648438 C 1.320312 -0.460938 1.488281 -0.371094 1.726562 -0.371094 C 1.894531 -0.371094 2.058594 -0.425781 2.214844 -0.535156 C 2.304688 -0.597656 2.398438 -0.679688 2.492188 -0.789062 L 2.492188 -2.792969 C 2.492188 -2.980469 2.453125 -3.105469 2.378906 -3.164062 C 2.304688 -3.222656 2.160156 -3.257812 1.941406 -3.269531 L 1.941406 -3.390625 L 3.125 -3.390625 L 3.125 -0.8125 C 3.125 -0.648438 3.152344 -0.53125 3.214844 -0.46875 C 3.273438 -0.40625 3.398438 -0.382812 3.59375 -0.386719 L 3.59375 -0.285156 C 3.457031 -0.25 3.359375 -0.222656 3.296875 -0.203125 C 3.234375 -0.183594 3.125 -0.152344 2.976562 -0.101562 C 2.914062 -0.0820312 2.773438 -0.0273438 2.558594 0.0546875 C 2.546875 0.0546875 2.539062 0.0507812 2.539062 0.0390625 C 2.535156 0.0273438 2.535156 0.015625 2.535156 0 L 2.535156 -0.589844 C 2.367188 -0.390625 2.21875 -0.246094 2.078125 -0.148438 C 1.871094 -0.00390625 1.652344 0.0703125 1.421875 0.0703125 C 1.207031 0.0703125 1.007812 -0.0078125 0.820312 -0.15625 C 0.628906 -0.304688 0.535156 -0.554688 0.535156 -0.90625 L 0.535156 -2.808594 C 0.535156 -3.003906 0.492188 -3.132812 0.410156 -3.199219 C 0.355469 -3.242188 0.242188 -3.273438 0.0664062 -3.289062 L 0.0664062 -3.390625 Z "/>
</g>
<g id="glyph-0-14">
<path d="M 3.035156 -3.367188 L 3.035156 -3.277344 L 1.003906 -0.230469 L 2.039062 -0.230469 C 2.398438 -0.230469 2.625 -0.277344 2.722656 -0.367188 C 2.816406 -0.460938 2.910156 -0.683594 3.003906 -1.039062 L 3.132812 -1.015625 L 3.027344 0 L 0.191406 0 L 0.191406 -0.0859375 L 2.195312 -3.140625 L 1.210938 -3.140625 C 0.949219 -3.140625 0.777344 -3.097656 0.695312 -3.007812 C 0.613281 -2.917969 0.558594 -2.742188 0.527344 -2.480469 L 0.398438 -2.480469 L 0.414062 -3.367188 Z "/>
</g>
<g id="glyph-0-15">
<path d="M 1.777344 -3.460938 C 1.953125 -3.460938 2.117188 -3.421875 2.265625 -3.34375 C 2.363281 -3.292969 2.457031 -3.222656 2.546875 -3.132812 L 2.546875 -4.296875 C 2.546875 -4.445312 2.53125 -4.546875 2.5 -4.601562 C 2.464844 -4.660156 2.386719 -4.6875 2.261719 -4.6875 C 2.234375 -4.6875 2.207031 -4.6875 2.1875 -4.683594 C 2.164062 -4.679688 2.117188 -4.675781 2.039062 -4.667969 L 2.039062 -4.789062 L 2.339844 -4.867188 C 2.449219 -4.894531 2.558594 -4.925781 2.667969 -4.957031 C 2.777344 -4.988281 2.875 -5.019531 2.960938 -5.050781 C 3 -5.0625 3.0625 -5.085938 3.152344 -5.121094 L 3.175781 -5.113281 L 3.167969 -4.726562 C 3.164062 -4.589844 3.164062 -4.445312 3.160156 -4.296875 C 3.15625 -4.148438 3.15625 -4.003906 3.15625 -3.859375 L 3.148438 -0.867188 C 3.148438 -0.710938 3.167969 -0.597656 3.207031 -0.535156 C 3.246094 -0.472656 3.351562 -0.4375 3.519531 -0.4375 C 3.546875 -0.4375 3.574219 -0.441406 3.601562 -0.441406 C 3.628906 -0.441406 3.652344 -0.445312 3.679688 -0.449219 L 3.679688 -0.328125 C 3.664062 -0.324219 3.488281 -0.265625 3.148438 -0.148438 L 2.574219 0.0703125 L 2.546875 0.0351562 L 2.546875 -0.414062 C 2.410156 -0.265625 2.292969 -0.160156 2.195312 -0.09375 C 2.015625 0.015625 1.808594 0.0703125 1.574219 0.0703125 C 1.160156 0.0703125 0.824219 -0.0898438 0.566406 -0.410156 C 0.308594 -0.734375 0.179688 -1.105469 0.179688 -1.527344 C 0.179688 -2.058594 0.332031 -2.511719 0.644531 -2.890625 C 0.953125 -3.269531 1.328125 -3.460938 1.777344 -3.460938 Z M 1.910156 -0.324219 C 2.101562 -0.324219 2.257812 -0.382812 2.375 -0.496094 C 2.492188 -0.605469 2.546875 -0.710938 2.546875 -0.8125 L 2.546875 -2.382812 C 2.546875 -2.699219 2.464844 -2.925781 2.292969 -3.054688 C 2.125 -3.1875 1.960938 -3.25 1.796875 -3.25 C 1.488281 -3.25 1.25 -3.117188 1.082031 -2.84375 C 0.910156 -2.570312 0.824219 -2.234375 0.824219 -1.839844 C 0.824219 -1.445312 0.914062 -1.09375 1.097656 -0.789062 C 1.277344 -0.480469 1.550781 -0.324219 1.910156 -0.324219 Z "/>
</g>
</g>
<image id="source-375" x="0" y="0" width="0" height="0"/>
<mask id="mask-0">
<use xlink:href="#source-375"/>
</mask>
</defs>
<g fill="rgb(100%, 100%, 100%)" fill-opacity="1">
<use xlink:href="#glyph-0-0" x="30" y="25.625"/>
<use xlink:href="#glyph-0-1" x="35" y="25.625"/>
<use xlink:href="#glyph-0-2" x="37" y="25.625"/>
<use xlink:href="#glyph-0-3" x="41" y="25.625"/>
<use xlink:href="#glyph-0-4" x="44" y="25.625"/>
<use xlink:href="#glyph-0-5" x="47" y="25.625"/>
<use xlink:href="#glyph-0-6" x="49" y="25.625"/>
<use xlink:href="#glyph-0-7" x="51" y="25.625"/>
<use xlink:href="#glyph-0-8" x="56" y="25.625"/>
<use xlink:href="#glyph-0-9" x="58" y="25.625"/>
<use xlink:href="#glyph-0-3" x="62" y="25.625"/>
<use xlink:href="#glyph-0-10" x="65" y="25.625"/>
<use xlink:href="#glyph-0-5" x="69" y="25.625"/>
<use xlink:href="#glyph-0-4" x="71" y="25.625"/>
<use xlink:href="#glyph-0-6" x="74" y="25.625"/>
<use xlink:href="#glyph-0-11" x="76" y="25.625"/>
<use xlink:href="#glyph-0-1" x="81" y="25.625"/>
<use xlink:href="#glyph-0-12" x="83" y="25.625"/>
<use xlink:href="#glyph-0-13" x="86" y="25.625"/>
<use xlink:href="#glyph-0-4" x="90" y="25.625"/>
<use xlink:href="#glyph-0-8" x="93" y="25.625"/>
<use xlink:href="#glyph-0-1" x="95" y="25.625"/>
<use xlink:href="#glyph-0-14" x="97" y="25.625"/>
<use xlink:href="#glyph-0-3" x="100" y="25.625"/>
<use xlink:href="#glyph-0-15" x="103" y="25.625"/>
</g>
</svg>
