<?xml version="1.0" encoding="UTF-8"?>
<svg xmlns="http://www.w3.org/2000/svg" xmlns:xlink="http://www.w3.org/1999/xlink" width="1920" height="1080" viewBox="0 0 1920 1080">
<defs>
<g>
<g id="glyph-0-0">
<path d="M 1.863281 -3.085938 C 1.894531 -2.542969 2.019531 -2.101562 2.246094 -1.765625 C 2.675781 -1.132812 3.433594 -0.8125 4.519531 -0.8125 C 5.003906 -0.8125 5.445312 -0.882812 5.847656 -1.023438 C 6.621094 -1.292969 7.003906 -1.773438 7.003906 -2.46875 C 7.003906 -2.988281 6.84375 -3.359375 6.515625 -3.582031 C 6.1875 -3.796875 5.671875 -3.988281 4.96875 -4.148438 L 3.671875 -4.441406 C 2.824219 -4.632812 2.226562 -4.839844 1.875 -5.070312 C 1.265625 -5.46875 0.964844 -6.066406 0.964844 -6.863281 C 0.964844 -7.722656 1.261719 -8.425781 1.855469 -8.976562 C 2.449219 -9.527344 3.292969 -9.804688 4.382812 -9.804688 C 5.382812 -9.804688 6.234375 -9.5625 6.9375 -9.078125 C 7.636719 -8.59375 7.988281 -7.820312 7.988281 -6.757812 L 6.769531 -6.757812 C 6.707031 -7.269531 6.566406 -7.664062 6.355469 -7.9375 C 5.960938 -8.4375 5.289062 -8.683594 4.34375 -8.683594 C 3.578125 -8.683594 3.03125 -8.523438 2.695312 -8.203125 C 2.359375 -7.882812 2.195312 -7.507812 2.195312 -7.082031 C 2.195312 -6.613281 2.390625 -6.273438 2.78125 -6.054688 C 3.035156 -5.914062 3.617188 -5.742188 4.519531 -5.535156 L 5.859375 -5.226562 C 6.507812 -5.078125 7.003906 -4.878906 7.355469 -4.621094 C 7.964844 -4.175781 8.269531 -3.527344 8.269531 -2.675781 C 8.269531 -1.617188 7.882812 -0.859375 7.113281 -0.402344 C 6.34375 0.0507812 5.445312 0.28125 4.425781 0.28125 C 3.238281 0.28125 2.308594 -0.0234375 1.632812 -0.632812 C 0.960938 -1.234375 0.632812 -2.054688 0.644531 -3.085938 Z "/>
</g>
<g id="glyph-0-1">
<path d="M 5.214844 -6.972656 L 6.511719 -6.972656 C 6.347656 -6.527344 5.980469 -5.503906 5.410156 -3.914062 C 4.984375 -2.714844 4.628906 -1.738281 4.34375 -0.984375 C 3.664062 0.796875 3.1875 1.882812 2.910156 2.273438 C 2.632812 2.664062 2.15625 2.859375 1.476562 2.859375 C 1.3125 2.859375 1.1875 2.851562 1.097656 2.839844 C 1.007812 2.824219 0.898438 2.800781 0.769531 2.765625 L 0.769531 1.699219 C 0.972656 1.753906 1.121094 1.789062 1.210938 1.804688 C 1.300781 1.816406 1.382812 1.824219 1.453125 1.824219 C 1.667969 1.824219 1.828125 1.785156 1.929688 1.714844 C 2.03125 1.644531 2.117188 1.554688 2.1875 1.453125 C 2.210938 1.417969 2.289062 1.238281 2.421875 0.917969 C 2.554688 0.597656 2.652344 0.359375 2.714844 0.203125 L 0.136719 -6.972656 L 1.464844 -6.972656 L 3.332031 -1.296875 Z "/>
</g>
<g id="glyph-0-2">
<path d="M 0.859375 -6.972656 L 2.019531 -6.972656 L 2.019531 -5.984375 C 2.296875 -6.328125 2.546875 -6.574219 2.773438 -6.730469 C 3.160156 -6.996094 3.597656 -7.128906 4.089844 -7.128906 C 4.644531 -7.128906 5.089844 -6.992188 5.429688 -6.71875 C 5.621094 -6.5625 5.792969 -6.332031 5.949219 -6.027344 C 6.210938 -6.402344 6.515625 -6.679688 6.867188 -6.859375 C 7.21875 -7.039062 7.613281 -7.128906 8.054688 -7.128906 C 8.992188 -7.128906 9.628906 -6.789062 9.96875 -6.113281 C 10.148438 -5.75 10.242188 -5.257812 10.242188 -4.640625 L 10.242188 0 L 9.023438 0 L 9.023438 -4.84375 C 9.023438 -5.308594 8.90625 -5.628906 8.675781 -5.800781 C 8.441406 -5.972656 8.160156 -6.0625 7.824219 -6.0625 C 7.363281 -6.0625 6.96875 -5.90625 6.636719 -5.597656 C 6.304688 -5.289062 6.140625 -4.777344 6.140625 -4.054688 L 6.140625 0 L 4.949219 0 L 4.949219 -4.550781 C 4.949219 -5.023438 4.890625 -5.367188 4.777344 -5.585938 C 4.601562 -5.910156 4.269531 -6.074219 3.78125 -6.074219 C 3.339844 -6.074219 2.9375 -5.902344 2.574219 -5.558594 C 2.210938 -5.214844 2.03125 -4.597656 2.03125 -3.699219 L 2.03125 0 L 0.859375 0 Z "/>
</g>
<g id="glyph-0-3">
<path d="M 3.800781 -0.789062 C 4.347656 -0.789062 4.804688 -1.015625 5.164062 -1.472656 C 5.527344 -1.933594 5.710938 -2.617188 5.710938 -3.527344 C 5.710938 -4.082031 5.628906 -4.5625 5.46875 -4.960938 C 5.164062 -5.730469 4.609375 -6.113281 3.800781 -6.113281 C 2.988281 -6.113281 2.433594 -5.707031 2.136719 -4.894531 C 1.976562 -4.460938 1.894531 -3.910156 1.894531 -3.242188 C 1.894531 -2.703125 1.976562 -2.246094 2.136719 -1.867188 C 2.441406 -1.148438 2.996094 -0.789062 3.800781 -0.789062 Z M 0.769531 -6.941406 L 1.90625 -6.941406 L 1.90625 -6.015625 C 2.140625 -6.332031 2.398438 -6.578125 2.675781 -6.75 C 3.070312 -7.011719 3.535156 -7.140625 4.070312 -7.140625 C 4.859375 -7.140625 5.53125 -6.839844 6.082031 -6.234375 C 6.632812 -5.628906 6.90625 -4.761719 6.90625 -3.640625 C 6.90625 -2.121094 6.511719 -1.035156 5.714844 -0.382812 C 5.210938 0.0273438 4.625 0.234375 3.957031 0.234375 C 3.433594 0.234375 2.992188 0.121094 2.636719 -0.109375 C 2.429688 -0.242188 2.195312 -0.464844 1.941406 -0.78125 L 1.941406 2.78125 L 0.769531 2.78125 Z "/>
</g>
<g id="glyph-0-4">
<path d="M 0.859375 -9.597656 L 2.03125 -9.597656 L 2.03125 -6.027344 C 2.308594 -6.378906 2.558594 -6.628906 2.78125 -6.769531 C 3.15625 -7.019531 3.628906 -7.140625 4.191406 -7.140625 C 5.203125 -7.140625 5.890625 -6.789062 6.25 -6.082031 C 6.445312 -5.695312 6.542969 -5.160156 6.542969 -4.472656 L 6.542969 0 L 5.339844 0 L 5.339844 -4.394531 C 5.339844 -4.90625 5.273438 -5.28125 5.144531 -5.519531 C 4.929688 -5.902344 4.53125 -6.09375 3.945312 -6.09375 C 3.460938 -6.09375 3.019531 -5.925781 2.625 -5.59375 C 2.230469 -5.257812 2.03125 -4.625 2.03125 -3.699219 L 2.03125 0 L 0.859375 0 Z "/>
</g>
<g id="glyph-0-5">
<path d="M 3.625 -0.753906 C 4.402344 -0.753906 4.9375 -1.050781 5.222656 -1.636719 C 5.511719 -2.226562 5.65625 -2.878906 5.65625 -3.601562 C 5.65625 -4.25 5.554688 -4.78125 5.34375 -5.1875 C 5.015625 -5.832031 4.445312 -6.152344 3.640625 -6.152344 C 2.921875 -6.152344 2.402344 -5.878906 2.078125 -5.332031 C 1.75 -4.785156 1.589844 -4.125 1.589844 -3.351562 C 1.589844 -2.609375 1.75 -1.992188 2.078125 -1.496094 C 2.402344 -1.003906 2.917969 -0.753906 3.625 -0.753906 Z M 3.671875 -7.175781 C 4.570312 -7.175781 5.328125 -6.875 5.949219 -6.277344 C 6.570312 -5.675781 6.882812 -4.796875 6.882812 -3.632812 C 6.882812 -2.507812 6.609375 -1.578125 6.0625 -0.847656 C 5.515625 -0.113281 4.664062 0.253906 3.515625 0.253906 C 2.554688 0.253906 1.792969 -0.0703125 1.230469 -0.71875 C 0.667969 -1.367188 0.382812 -2.238281 0.382812 -3.332031 C 0.382812 -4.503906 0.679688 -5.4375 1.277344 -6.132812 C 1.871094 -6.828125 2.667969 -7.175781 3.671875 -7.175781 Z "/>
</g>
<g id="glyph-0-6">
<path d="M 0.859375 -6.972656 L 1.972656 -6.972656 L 1.972656 -5.984375 C 2.300781 -6.390625 2.652344 -6.683594 3.019531 -6.863281 C 3.390625 -7.039062 3.800781 -7.128906 4.25 -7.128906 C 5.242188 -7.128906 5.910156 -6.785156 6.257812 -6.09375 C 6.449219 -5.714844 6.542969 -5.175781 6.542969 -4.472656 L 6.542969 0 L 5.351562 0 L 5.351562 -4.394531 C 5.351562 -4.820312 5.289062 -5.164062 5.164062 -5.421875 C 4.953125 -5.855469 4.578125 -6.074219 4.03125 -6.074219 C 3.753906 -6.074219 3.523438 -6.046875 3.347656 -5.988281 C 3.027344 -5.894531 2.742188 -5.703125 2.5 -5.417969 C 2.304688 -5.1875 2.175781 -4.949219 2.117188 -4.703125 C 2.058594 -4.457031 2.03125 -4.109375 2.03125 -3.652344 L 2.03125 0 L 0.859375 0 Z "/>
</g>
<g id="glyph-0-7">
<rect x="0" y="0" width="0" height="0" mask="url(#mask-0)"/>
</g>
<g id="glyph-0-8">
<path d="M 1.152344 -8.035156 C 1.167969 -8.519531 1.253906 -8.875 1.40625 -9.101562 C 1.679688 -9.5 2.207031 -9.699219 2.988281 -9.699219 C 3.0625 -9.699219 3.136719 -9.699219 3.214844 -9.695312 C 3.292969 -9.691406 3.382812 -9.683594 3.484375 -9.675781 L 3.484375 -8.605469 C 3.363281 -8.613281 3.273438 -8.621094 3.21875 -8.621094 C 3.164062 -8.625 3.113281 -8.625 3.066406 -8.625 C 2.710938 -8.625 2.496094 -8.535156 2.429688 -8.347656 C 2.359375 -8.164062 2.324219 -7.695312 2.324219 -6.941406 L 3.484375 -6.941406 L 3.484375 -6.015625 L 2.3125 -6.015625 L 2.3125 0 L 1.152344 0 L 1.152344 -6.015625 L 0.183594 -6.015625 L 0.183594 -6.941406 L 1.152344 -6.941406 Z "/>
</g>
<g id="glyph-0-9">
<path d="M 0.984375 -9.5625 L 2.839844 -9.5625 L 5.585938 -1.476562 L 8.3125 -9.5625 L 10.148438 -9.5625 L 10.148438 0 L 8.917969 0 L 8.917969 -5.644531 C 8.917969 -5.839844 8.921875 -6.164062 8.933594 -6.613281 C 8.941406 -7.066406 8.945312 -7.550781 8.945312 -8.066406 L 6.21875 0 L 4.933594 0 L 2.1875 -8.066406 L 2.1875 -7.773438 C 2.1875 -7.539062 2.191406 -7.183594 2.203125 -6.703125 C 2.214844 -6.222656 2.21875 -5.871094 2.21875 -5.644531 L 2.21875 0 L 0.984375 0 Z "/>
</g>
<g id="glyph-0-10">
<path d="M 1.09375 -8.917969 L 2.277344 -8.917969 L 2.277344 -6.972656 L 3.390625 -6.972656 L 3.390625 -6.015625 L 2.277344 -6.015625 L 2.277344 -1.464844 C 2.277344 -1.222656 2.359375 -1.058594 2.527344 -0.976562 C 2.617188 -0.929688 2.769531 -0.90625 2.980469 -0.90625 C 3.039062 -0.90625 3.097656 -0.90625 3.164062 -0.90625 C 3.230469 -0.910156 3.304688 -0.914062 3.390625 -0.925781 L 3.390625 0 C 3.257812 0.0390625 3.117188 0.0664062 2.972656 0.0859375 C 2.828125 0.101562 2.667969 0.109375 2.5 0.109375 C 1.953125 0.109375 1.582031 -0.0273438 1.386719 -0.308594 C 1.191406 -0.589844 1.09375 -0.953125 1.09375 -1.398438 L 1.09375 -6.015625 L 0.148438 -6.015625 L 0.148438 -6.972656 L 1.09375 -6.972656 Z "/>
</g>
<g id="glyph-0-11">
<path d="M 0.859375 -6.941406 L 2.050781 -6.941406 L 2.050781 0 L 0.859375 0 Z M 0.859375 -9.5625 L 2.050781 -9.5625 L 2.050781 -8.234375 L 0.859375 -8.234375 Z "/>
</g>
</g>
<image id="source-12" x="0" y="0" width="0" height="0"/>
<mask id="mask-0">
<use xlink:href="#source-12"/>
</mask>
</defs>
<g fill="rgb(100%, 100%, 100%)" fill-opacity="1">
<use xlink:href="#glyph-0-0" x="30" y="30.266602"/>
<use xlink:href="#glyph-0-1" x="39" y="30.266602"/>
<use xlink:href="#glyph-0-2" x="46" y="30.266602"/>
<use xlink:href="#glyph-0-3" x="57" y="30.266602"/>
<use xlink:href="#glyph-0-4" x="64" y="30.266602"/>
<use xlink:href="#glyph-0-5" x="71" y="30.266602"/>
<use xlink:href="#glyph-0-6" x="78" y="30.266602"/>
<use xlink:href="#glyph-0-1" x="85" y="30.266602"/>
<use xlink:href="#glyph-0-7" x="92" y="30.266602"/>
<use xlink:href="#glyph-0-5" x="96" y="30.266602"/>
<use xlink:href="#glyph-0-8" x="103" y="30.266602"/>
<use xlink:href="#glyph-0-7" x="107" y="30.266602"/>
<use xlink:href="#glyph-0-9" x="111" y="30.266602"/>
<use xlink:href="#glyph-0-5" x="122" y="30.266602"/>
<use xlink:href="#glyph-0-10" x="129" y="30.266602"/>
<use xlink:href="#glyph-0-11" x="133" y="30.266602"/>
<use xlink:href="#glyph-0-5" x="136" y="30.266602"/>
<use xlink:href="#glyph-0-6" x="143" y="30.266602"/>
</g>
</svg>
