<?xml version="1.0" encoding="UTF-8"?>
<svg xmlns="http://www.w3.org/2000/svg" xmlns:xlink="http://www.w3.org/1999/xlink" width="1920" height="1080" viewBox="0 0 1920 1080">
<defs>
<g>
<g id="glyph-0-0">
<path d="M 0.121094 -0.195312 C 0.519531 -0.238281 0.777344 -0.308594 0.898438 -0.410156 C 1.015625 -0.511719 1.074219 -0.765625 1.074219 -1.175781 L 1.074219 -5.992188 C 1.074219 -6.378906 1.015625 -6.628906 0.898438 -6.746094 C 0.78125 -6.863281 0.523438 -6.9375 0.121094 -6.964844 L 0.121094 -7.167969 L 3.183594 -7.167969 L 3.183594 -6.964844 C 2.785156 -6.945312 2.519531 -6.878906 2.382812 -6.769531 C 2.246094 -6.660156 2.179688 -6.425781 2.179688 -6.066406 L 2.179688 -0.863281 C 2.179688 -0.742188 2.199219 -0.648438 2.238281 -0.578125 C 2.28125 -0.511719 2.371094 -0.46875 2.507812 -0.449219 C 2.589844 -0.4375 2.675781 -0.433594 2.765625 -0.429688 C 2.855469 -0.425781 3.023438 -0.421875 3.269531 -0.421875 C 4.230469 -0.421875 4.882812 -0.503906 5.222656 -0.660156 C 5.558594 -0.820312 5.886719 -1.226562 6.203125 -1.878906 L 6.480469 -1.878906 L 5.949219 0 L 0.121094 0 Z "/>
</g>
<g id="glyph-0-1">
<path d="M 0.886719 -6.828125 C 0.886719 -6.980469 0.941406 -7.109375 1.046875 -7.21875 C 1.152344 -7.328125 1.285156 -7.382812 1.4375 -7.382812 C 1.589844 -7.382812 1.71875 -7.332031 1.828125 -7.222656 C 1.933594 -7.117188 1.988281 -6.984375 1.988281 -6.828125 C 1.988281 -6.675781 1.933594 -6.546875 1.828125 -6.441406 C 1.71875 -6.332031 1.589844 -6.277344 1.4375 -6.277344 C 1.28125 -6.277344 1.152344 -6.332031 1.046875 -6.441406 C 0.941406 -6.546875 0.886719 -6.675781 0.886719 -6.828125 Z M 0.210938 -0.148438 C 0.589844 -0.183594 0.828125 -0.246094 0.925781 -0.339844 C 1.023438 -0.433594 1.074219 -0.6875 1.074219 -1.101562 L 1.074219 -3.625 C 1.074219 -3.851562 1.058594 -4.011719 1.027344 -4.097656 C 0.972656 -4.242188 0.863281 -4.316406 0.691406 -4.316406 C 0.652344 -4.316406 0.617188 -4.3125 0.578125 -4.304688 C 0.542969 -4.296875 0.433594 -4.269531 0.257812 -4.222656 L 0.257812 -4.386719 L 0.488281 -4.460938 C 1.105469 -4.660156 1.535156 -4.8125 1.777344 -4.914062 C 1.875 -4.957031 1.941406 -4.976562 1.96875 -4.976562 C 1.976562 -4.953125 1.976562 -4.925781 1.976562 -4.898438 L 1.976562 -1.101562 C 1.976562 -0.699219 2.027344 -0.445312 2.125 -0.34375 C 2.222656 -0.242188 2.441406 -0.175781 2.78125 -0.148438 L 2.78125 0 L 0.210938 0 Z "/>
</g>
<g id="glyph-0-2">
<path d="M 0.195312 -0.148438 C 0.445312 -0.179688 0.621094 -0.242188 0.722656 -0.335938 C 0.824219 -0.429688 0.871094 -0.636719 0.871094 -0.960938 L 0.871094 -3.644531 C 0.871094 -3.871094 0.851562 -4.027344 0.808594 -4.121094 C 0.742188 -4.253906 0.605469 -4.320312 0.398438 -4.320312 C 0.367188 -4.320312 0.332031 -4.320312 0.300781 -4.316406 C 0.265625 -4.3125 0.222656 -4.308594 0.175781 -4.300781 L 0.175781 -4.484375 C 0.320312 -4.527344 0.660156 -4.636719 1.199219 -4.8125 L 1.699219 -4.976562 C 1.722656 -4.976562 1.738281 -4.96875 1.742188 -4.949219 C 1.746094 -4.933594 1.75 -4.910156 1.75 -4.878906 L 1.75 -4.097656 C 2.074219 -4.402344 2.328125 -4.609375 2.511719 -4.722656 C 2.789062 -4.894531 3.074219 -4.984375 3.371094 -4.984375 C 3.609375 -4.984375 3.828125 -4.914062 4.023438 -4.777344 C 4.40625 -4.507812 4.597656 -4.03125 4.597656 -3.34375 L 4.597656 -0.871094 C 4.597656 -0.617188 4.648438 -0.433594 4.75 -0.324219 C 4.851562 -0.210938 5.023438 -0.152344 5.261719 -0.148438 L 5.261719 0 L 3.003906 0 L 3.003906 -0.148438 C 3.261719 -0.183594 3.441406 -0.253906 3.542969 -0.363281 C 3.644531 -0.46875 3.699219 -0.703125 3.699219 -1.0625 L 3.699219 -3.320312 C 3.699219 -3.625 3.640625 -3.875 3.527344 -4.074219 C 3.414062 -4.273438 3.207031 -4.375 2.902344 -4.375 C 2.695312 -4.375 2.484375 -4.304688 2.269531 -4.164062 C 2.148438 -4.082031 1.996094 -3.949219 1.804688 -3.761719 L 1.804688 -0.796875 C 1.804688 -0.542969 1.859375 -0.375 1.972656 -0.289062 C 2.085938 -0.203125 2.265625 -0.15625 2.507812 -0.148438 L 2.507812 0 L 0.195312 0 Z "/>
</g>
<g id="glyph-0-3">
<path d="M 2.480469 -4.960938 C 2.976562 -4.960938 3.414062 -4.789062 3.789062 -4.445312 C 4.160156 -4.101562 4.347656 -3.613281 4.347656 -2.984375 L 0.988281 -2.984375 C 1.023438 -2.164062 1.210938 -1.570312 1.542969 -1.195312 C 1.878906 -0.820312 2.277344 -0.632812 2.734375 -0.632812 C 3.105469 -0.632812 3.417969 -0.730469 3.671875 -0.925781 C 3.925781 -1.121094 4.160156 -1.394531 4.375 -1.75 L 4.558594 -1.6875 C 4.414062 -1.238281 4.144531 -0.824219 3.746094 -0.445312 C 3.351562 -0.0625 2.863281 0.125 2.289062 0.125 C 1.628906 0.125 1.113281 -0.125 0.753906 -0.625 C 0.390625 -1.125 0.210938 -1.703125 0.210938 -2.355469 C 0.210938 -3.0625 0.421875 -3.675781 0.839844 -4.1875 C 1.261719 -4.703125 1.808594 -4.960938 2.480469 -4.960938 Z M 2.175781 -4.574219 C 1.773438 -4.574219 1.464844 -4.398438 1.253906 -4.042969 C 1.140625 -3.851562 1.058594 -3.609375 1.011719 -3.320312 L 3.242188 -3.320312 C 3.203125 -3.675781 3.136719 -3.9375 3.042969 -4.109375 C 2.871094 -4.421875 2.578125 -4.574219 2.175781 -4.574219 Z "/>
</g>
<g id="glyph-0-4">
<path d="M 3.105469 -2.929688 C 2.699219 -2.796875 2.363281 -2.648438 2.101562 -2.484375 C 1.59375 -2.171875 1.339844 -1.816406 1.339844 -1.417969 C 1.339844 -1.097656 1.445312 -0.859375 1.65625 -0.707031 C 1.792969 -0.609375 1.945312 -0.5625 2.117188 -0.5625 C 2.347656 -0.5625 2.570312 -0.625 2.785156 -0.757812 C 3 -0.886719 3.105469 -1.050781 3.105469 -1.253906 Z M 0.398438 -1.050781 C 0.398438 -1.5625 0.652344 -1.992188 1.164062 -2.332031 C 1.488281 -2.542969 2.136719 -2.832031 3.105469 -3.195312 L 3.105469 -3.644531 C 3.105469 -4.003906 3.070312 -4.253906 3 -4.394531 C 2.878906 -4.632812 2.628906 -4.75 2.253906 -4.75 C 2.074219 -4.75 1.902344 -4.703125 1.742188 -4.613281 C 1.578125 -4.515625 1.496094 -4.386719 1.496094 -4.222656 C 1.496094 -4.179688 1.503906 -4.105469 1.523438 -4.007812 C 1.542969 -3.90625 1.550781 -3.84375 1.550781 -3.8125 C 1.550781 -3.617188 1.484375 -3.480469 1.355469 -3.402344 C 1.28125 -3.355469 1.191406 -3.332031 1.089844 -3.332031 C 0.929688 -3.332031 0.808594 -3.382812 0.726562 -3.488281 C 0.640625 -3.59375 0.597656 -3.707031 0.597656 -3.835938 C 0.597656 -4.082031 0.75 -4.339844 1.054688 -4.609375 C 1.359375 -4.878906 1.808594 -5.015625 2.394531 -5.015625 C 3.078125 -5.015625 3.542969 -4.792969 3.789062 -4.347656 C 3.917969 -4.105469 3.984375 -3.75 3.984375 -3.285156 L 3.984375 -1.164062 C 3.984375 -0.960938 3.996094 -0.816406 4.023438 -0.742188 C 4.070312 -0.605469 4.167969 -0.535156 4.3125 -0.535156 C 4.394531 -0.535156 4.460938 -0.546875 4.511719 -0.570312 C 4.566406 -0.59375 4.65625 -0.65625 4.785156 -0.75 L 4.785156 -0.476562 C 4.671875 -0.339844 4.550781 -0.226562 4.421875 -0.136719 C 4.222656 -0.00390625 4.023438 0.0625 3.820312 0.0625 C 3.578125 0.0625 3.40625 -0.015625 3.296875 -0.167969 C 3.191406 -0.324219 3.132812 -0.507812 3.121094 -0.726562 C 2.851562 -0.492188 2.625 -0.320312 2.433594 -0.207031 C 2.113281 -0.015625 1.808594 0.078125 1.519531 0.078125 C 1.214844 0.078125 0.953125 -0.0273438 0.730469 -0.242188 C 0.507812 -0.453125 0.398438 -0.726562 0.398438 -1.050781 Z "/>
</g>
<g id="glyph-0-5">
<path d="M 0.046875 -0.175781 C 0.371094 -0.203125 0.585938 -0.261719 0.691406 -0.347656 C 0.796875 -0.433594 0.851562 -0.617188 0.851562 -0.898438 L 0.851562 -3.285156 C 0.851562 -3.632812 0.820312 -3.882812 0.753906 -4.035156 C 0.6875 -4.183594 0.570312 -4.257812 0.398438 -4.257812 C 0.363281 -4.257812 0.316406 -4.253906 0.257812 -4.246094 C 0.199219 -4.238281 0.136719 -4.222656 0.0742188 -4.210938 L 0.0742188 -4.386719 C 0.273438 -4.457031 0.480469 -4.527344 0.691406 -4.601562 C 0.902344 -4.675781 1.050781 -4.730469 1.132812 -4.761719 C 1.308594 -4.828125 1.488281 -4.902344 1.675781 -4.988281 C 1.699219 -4.988281 1.714844 -4.980469 1.722656 -4.960938 C 1.726562 -4.945312 1.730469 -4.90625 1.730469 -4.851562 L 1.730469 -3.984375 C 1.957031 -4.296875 2.171875 -4.542969 2.382812 -4.71875 C 2.59375 -4.894531 2.808594 -4.984375 3.035156 -4.984375 C 3.214844 -4.984375 3.363281 -4.929688 3.476562 -4.820312 C 3.589844 -4.714844 3.644531 -4.578125 3.644531 -4.417969 C 3.644531 -4.273438 3.601562 -4.152344 3.515625 -4.050781 C 3.429688 -3.953125 3.320312 -3.902344 3.191406 -3.902344 C 3.054688 -3.902344 2.921875 -3.964844 2.785156 -4.089844 C 2.648438 -4.210938 2.542969 -4.273438 2.464844 -4.273438 C 2.339844 -4.273438 2.191406 -4.175781 2.011719 -3.976562 C 1.832031 -3.777344 1.742188 -3.570312 1.742188 -3.359375 L 1.742188 -0.972656 C 1.742188 -0.667969 1.8125 -0.460938 1.953125 -0.339844 C 2.09375 -0.222656 2.328125 -0.167969 2.65625 -0.175781 L 2.65625 0 L 0.046875 0 Z "/>
</g>
<g id="glyph-0-6">
<rect x="0" y="0" width="0" height="0" mask="url(#mask-0)"/>
</g>
<g id="glyph-0-7">
<path d="M 4.835938 -2.78125 L 3.582031 -5.765625 L 2.34375 -2.78125 Z M 0.160156 0 L 0.160156 -0.195312 C 0.4375 -0.226562 0.644531 -0.332031 0.785156 -0.511719 C 0.925781 -0.691406 1.164062 -1.179688 1.503906 -1.976562 L 3.761719 -7.292969 L 3.972656 -7.292969 L 6.671875 -1.152344 C 6.851562 -0.742188 6.992188 -0.492188 7.101562 -0.394531 C 7.207031 -0.296875 7.390625 -0.230469 7.644531 -0.195312 L 7.644531 0 L 4.886719 0 L 4.886719 -0.195312 C 5.203125 -0.222656 5.410156 -0.257812 5.5 -0.300781 C 5.59375 -0.339844 5.636719 -0.4375 5.636719 -0.597656 C 5.636719 -0.652344 5.621094 -0.742188 5.585938 -0.878906 C 5.550781 -1.011719 5.5 -1.152344 5.4375 -1.300781 L 4.988281 -2.34375 L 2.152344 -2.34375 C 1.871094 -1.632812 1.703125 -1.203125 1.648438 -1.042969 C 1.59375 -0.886719 1.566406 -0.761719 1.566406 -0.671875 C 1.566406 -0.488281 1.640625 -0.363281 1.789062 -0.289062 C 1.878906 -0.246094 2.050781 -0.21875 2.304688 -0.195312 L 2.304688 0 Z "/>
</g>
<g id="glyph-0-8">
<path d="M 0.222656 -0.148438 C 0.550781 -0.179688 0.773438 -0.246094 0.886719 -0.347656 C 1.003906 -0.449219 1.0625 -0.644531 1.0625 -0.9375 L 1.0625 -6.105469 C 1.0625 -6.335938 1.042969 -6.496094 1.003906 -6.585938 C 0.933594 -6.734375 0.792969 -6.808594 0.578125 -6.808594 C 0.527344 -6.808594 0.472656 -6.800781 0.414062 -6.792969 C 0.355469 -6.78125 0.285156 -6.765625 0.195312 -6.746094 L 0.195312 -6.917969 C 0.671875 -7.046875 1.246094 -7.214844 1.914062 -7.425781 C 1.9375 -7.425781 1.953125 -7.414062 1.960938 -7.394531 C 1.964844 -7.375 1.96875 -7.328125 1.96875 -7.257812 L 1.96875 -0.914062 C 1.96875 -0.609375 2.019531 -0.410156 2.125 -0.320312 C 2.230469 -0.230469 2.449219 -0.171875 2.78125 -0.148438 L 2.78125 0 L 0.222656 0 Z "/>
</g>
<g id="glyph-0-9">
<path d="M 1.0625 0.980469 C 1.0625 1.277344 1.230469 1.480469 1.5625 1.59375 C 1.894531 1.707031 2.277344 1.761719 2.707031 1.761719 C 3.292969 1.761719 3.769531 1.660156 4.136719 1.457031 C 4.503906 1.253906 4.6875 1.003906 4.6875 0.707031 C 4.6875 0.472656 4.539062 0.316406 4.242188 0.238281 C 4.058594 0.191406 3.710938 0.164062 3.199219 0.160156 C 3.070312 0.15625 2.933594 0.152344 2.789062 0.144531 C 2.644531 0.140625 2.511719 0.132812 2.390625 0.125 C 2.3125 0.121094 2.1875 0.109375 2.015625 0.0859375 C 1.84375 0.0585938 1.714844 0.0390625 1.628906 0.0195312 C 1.585938 0.0195312 1.484375 0.132812 1.316406 0.355469 C 1.148438 0.582031 1.0625 0.789062 1.0625 0.980469 Z M 1.75 -1.777344 C 1.429688 -1.882812 1.179688 -2.070312 1.003906 -2.34375 C 0.824219 -2.613281 0.734375 -2.917969 0.734375 -3.257812 C 0.734375 -3.671875 0.898438 -4.0625 1.226562 -4.433594 C 1.554688 -4.804688 2.019531 -4.988281 2.617188 -4.988281 C 2.875 -4.988281 3.160156 -4.925781 3.46875 -4.804688 C 3.78125 -4.683594 4.078125 -4.625 4.363281 -4.625 C 4.4375 -4.625 4.550781 -4.625 4.699219 -4.632812 C 4.847656 -4.636719 4.957031 -4.640625 5.023438 -4.640625 L 5.089844 -4.640625 L 5.089844 -4.210938 L 4.171875 -4.210938 C 4.238281 -4.0625 4.285156 -3.933594 4.320312 -3.824219 C 4.382812 -3.621094 4.410156 -3.425781 4.410156 -3.242188 C 4.410156 -2.839844 4.246094 -2.472656 3.910156 -2.132812 C 3.578125 -1.796875 3.128906 -1.628906 2.566406 -1.628906 C 2.476562 -1.628906 2.320312 -1.644531 2.089844 -1.675781 C 1.988281 -1.675781 1.851562 -1.589844 1.683594 -1.417969 C 1.515625 -1.246094 1.433594 -1.105469 1.433594 -0.996094 C 1.433594 -0.882812 1.558594 -0.796875 1.804688 -0.746094 C 1.964844 -0.710938 2.144531 -0.691406 2.34375 -0.691406 C 3.25 -0.691406 3.863281 -0.640625 4.1875 -0.539062 C 4.722656 -0.375 4.988281 -0.0195312 4.988281 0.527344 C 4.988281 1.085938 4.675781 1.53125 4.054688 1.863281 C 3.433594 2.195312 2.804688 2.359375 2.167969 2.359375 C 1.589844 2.359375 1.132812 2.242188 0.792969 2.007812 C 0.453125 1.773438 0.285156 1.527344 0.285156 1.269531 C 0.285156 1.140625 0.332031 1.019531 0.421875 0.898438 C 0.511719 0.777344 0.6875 0.59375 0.953125 0.355469 L 1.300781 0.0429688 L 1.363281 -0.0195312 C 1.203125 -0.0859375 1.082031 -0.144531 1 -0.207031 C 0.859375 -0.316406 0.789062 -0.441406 0.789062 -0.582031 C 0.789062 -0.710938 0.847656 -0.855469 0.96875 -1.011719 C 1.089844 -1.167969 1.351562 -1.425781 1.75 -1.777344 Z M 2.753906 -1.882812 C 2.949219 -1.882812 3.113281 -1.9375 3.242188 -2.042969 C 3.453125 -2.210938 3.558594 -2.503906 3.558594 -2.925781 C 3.558594 -3.261719 3.472656 -3.636719 3.304688 -4.058594 C 3.132812 -4.476562 2.847656 -4.6875 2.449219 -4.6875 C 2.105469 -4.6875 1.867188 -4.523438 1.734375 -4.195312 C 1.667969 -4.023438 1.632812 -3.808594 1.632812 -3.554688 C 1.632812 -3.125 1.738281 -2.738281 1.945312 -2.394531 C 2.152344 -2.054688 2.425781 -1.882812 2.753906 -1.882812 Z "/>
</g>
<g id="glyph-0-10">
<path d="M 0.0351562 -6.726562 L 0.0351562 -6.90625 C 0.4375 -7 0.800781 -7.101562 1.121094 -7.214844 C 1.441406 -7.328125 1.613281 -7.382812 1.640625 -7.382812 C 1.648438 -7.363281 1.648438 -7.34375 1.648438 -7.320312 L 1.648438 -4.097656 C 1.742188 -4.269531 1.878906 -4.429688 2.0625 -4.582031 C 2.386719 -4.84375 2.761719 -4.976562 3.183594 -4.976562 C 3.703125 -4.976562 4.144531 -4.757812 4.511719 -4.320312 C 4.878906 -3.882812 5.0625 -3.316406 5.0625 -2.617188 C 5.0625 -1.871094 4.824219 -1.230469 4.347656 -0.699219 C 3.871094 -0.167969 3.246094 0.101562 2.46875 0.101562 C 2.078125 0.101562 1.695312 0.0234375 1.316406 -0.132812 C 0.941406 -0.289062 0.75 -0.441406 0.75 -0.597656 L 0.75 -6.1875 C 0.75 -6.394531 0.722656 -6.539062 0.667969 -6.625 C 0.609375 -6.710938 0.480469 -6.753906 0.273438 -6.753906 Z M 1.628906 -0.773438 C 1.660156 -0.589844 1.796875 -0.457031 2.042969 -0.378906 C 2.285156 -0.300781 2.5 -0.257812 2.683594 -0.257812 C 3.175781 -0.257812 3.542969 -0.445312 3.78125 -0.816406 C 4.019531 -1.183594 4.136719 -1.632812 4.136719 -2.15625 C 4.136719 -2.683594 4.023438 -3.167969 3.804688 -3.617188 C 3.582031 -4.0625 3.222656 -4.285156 2.722656 -4.285156 C 2.472656 -4.285156 2.230469 -4.207031 1.988281 -4.054688 C 1.75 -3.902344 1.628906 -3.707031 1.628906 -3.46875 Z "/>
</g>
<g id="glyph-0-11">
<path d="M 3.058594 -7.167969 L 3.058594 -6.964844 C 2.785156 -6.960938 2.601562 -6.945312 2.503906 -6.914062 C 2.328125 -6.855469 2.242188 -6.742188 2.242188 -6.570312 C 2.242188 -6.480469 2.273438 -6.359375 2.335938 -6.199219 C 2.398438 -6.039062 2.511719 -5.773438 2.683594 -5.402344 L 4.375 -1.628906 L 5.914062 -5.710938 C 5.980469 -5.890625 6.03125 -6.042969 6.066406 -6.167969 C 6.101562 -6.292969 6.121094 -6.390625 6.121094 -6.46875 C 6.121094 -6.675781 6.03125 -6.816406 5.851562 -6.890625 C 5.746094 -6.933594 5.570312 -6.960938 5.328125 -6.964844 L 5.328125 -7.167969 L 7.542969 -7.167969 L 7.542969 -6.980469 C 7.3125 -6.949219 7.144531 -6.890625 7.035156 -6.796875 C 6.871094 -6.660156 6.707031 -6.382812 6.542969 -5.964844 L 4.148438 0.125 L 3.984375 0.125 L 1.3125 -5.828125 C 1.085938 -6.332031 0.90625 -6.648438 0.769531 -6.769531 C 0.632812 -6.894531 0.433594 -6.964844 0.175781 -6.980469 L 0.175781 -7.167969 Z "/>
</g>
<g id="glyph-0-12">
<path d="M 0.5625 -1.667969 L 0.734375 -1.667969 C 0.816406 -1.265625 0.925781 -0.957031 1.0625 -0.742188 C 1.308594 -0.347656 1.671875 -0.148438 2.148438 -0.148438 C 2.414062 -0.148438 2.621094 -0.222656 2.773438 -0.367188 C 2.925781 -0.515625 3.003906 -0.703125 3.003906 -0.9375 C 3.003906 -1.085938 2.960938 -1.226562 2.871094 -1.363281 C 2.785156 -1.5 2.628906 -1.636719 2.40625 -1.765625 L 1.8125 -2.105469 C 1.378906 -2.339844 1.0625 -2.574219 0.855469 -2.808594 C 0.652344 -3.046875 0.550781 -3.324219 0.550781 -3.644531 C 0.550781 -4.039062 0.691406 -4.363281 0.972656 -4.617188 C 1.253906 -4.871094 1.609375 -5 2.035156 -5 C 2.222656 -5 2.429688 -4.964844 2.652344 -4.894531 C 2.875 -4.824219 3.003906 -4.785156 3.03125 -4.785156 C 3.09375 -4.785156 3.140625 -4.796875 3.167969 -4.8125 C 3.195312 -4.832031 3.222656 -4.859375 3.242188 -4.898438 L 3.371094 -4.898438 L 3.40625 -3.421875 L 3.242188 -3.421875 C 3.171875 -3.765625 3.078125 -4.03125 2.957031 -4.222656 C 2.738281 -4.574219 2.421875 -4.75 2.011719 -4.75 C 1.765625 -4.75 1.570312 -4.675781 1.429688 -4.523438 C 1.289062 -4.371094 1.214844 -4.191406 1.214844 -3.988281 C 1.214844 -3.664062 1.460938 -3.375 1.945312 -3.121094 L 2.644531 -2.746094 C 3.394531 -2.335938 3.769531 -1.859375 3.769531 -1.316406 C 3.769531 -0.902344 3.617188 -0.5625 3.304688 -0.296875 C 2.992188 -0.03125 2.582031 0.101562 2.078125 0.101562 C 1.867188 0.101562 1.628906 0.0664062 1.359375 -0.00390625 C 1.089844 -0.0742188 0.933594 -0.109375 0.882812 -0.109375 C 0.839844 -0.109375 0.804688 -0.0976562 0.773438 -0.0664062 C 0.742188 -0.0351562 0.714844 0 0.699219 0.0429688 L 0.5625 0.0429688 Z "/>
</g>
<g id="glyph-0-13">
<path d="M 1.675781 -4.898438 L 1.675781 -1.511719 C 1.675781 -1.273438 1.710938 -1.082031 1.777344 -0.9375 C 1.90625 -0.667969 2.148438 -0.535156 2.496094 -0.535156 C 2.734375 -0.535156 2.972656 -0.613281 3.199219 -0.773438 C 3.332031 -0.859375 3.464844 -0.980469 3.597656 -1.136719 L 3.597656 -4.035156 C 3.597656 -4.308594 3.542969 -4.484375 3.4375 -4.570312 C 3.332031 -4.65625 3.121094 -4.707031 2.804688 -4.722656 L 2.804688 -4.898438 L 4.511719 -4.898438 L 4.511719 -1.175781 C 4.511719 -0.933594 4.554688 -0.769531 4.640625 -0.679688 C 4.726562 -0.589844 4.910156 -0.550781 5.1875 -0.5625 L 5.1875 -0.414062 C 4.996094 -0.359375 4.851562 -0.320312 4.761719 -0.292969 C 4.667969 -0.265625 4.515625 -0.21875 4.300781 -0.148438 C 4.207031 -0.117188 4.007812 -0.0390625 3.699219 0.078125 C 3.679688 0.078125 3.667969 0.0703125 3.664062 0.0546875 C 3.660156 0.0390625 3.660156 0.0195312 3.660156 0 L 3.660156 -0.851562 C 3.421875 -0.566406 3.203125 -0.355469 3.003906 -0.21875 C 2.703125 -0.0078125 2.386719 0.101562 2.050781 0.101562 C 1.746094 0.101562 1.457031 -0.0078125 1.183594 -0.226562 C 0.910156 -0.441406 0.773438 -0.804688 0.773438 -1.3125 L 0.773438 -4.058594 C 0.773438 -4.339844 0.710938 -4.527344 0.59375 -4.625 C 0.515625 -4.683594 0.347656 -4.726562 0.09375 -4.75 L 0.09375 -4.898438 Z "/>
</g>
<g id="glyph-0-14">
<path d="M 4.386719 -4.859375 L 4.386719 -4.734375 L 1.449219 -0.332031 L 2.945312 -0.332031 C 3.464844 -0.332031 3.792969 -0.398438 3.929688 -0.53125 C 4.066406 -0.664062 4.203125 -0.988281 4.335938 -1.503906 L 4.523438 -1.464844 L 4.375 0 L 0.273438 0 L 0.273438 -0.121094 L 3.167969 -4.539062 L 1.75 -4.539062 C 1.371094 -4.539062 1.121094 -4.472656 1.003906 -4.34375 C 0.886719 -4.210938 0.808594 -3.957031 0.761719 -3.582031 L 0.578125 -3.582031 L 0.597656 -4.859375 Z "/>
</g>
<g id="glyph-0-15">
<path d="M 2.566406 -5 C 2.824219 -5 3.058594 -4.941406 3.273438 -4.828125 C 3.414062 -4.753906 3.550781 -4.652344 3.679688 -4.523438 L 3.679688 -6.203125 C 3.679688 -6.417969 3.65625 -6.566406 3.609375 -6.648438 C 3.5625 -6.730469 3.449219 -6.769531 3.269531 -6.769531 C 3.226562 -6.769531 3.191406 -6.769531 3.15625 -6.765625 C 3.125 -6.761719 3.054688 -6.753906 2.945312 -6.746094 L 2.945312 -6.917969 L 3.378906 -7.03125 C 3.539062 -7.074219 3.699219 -7.117188 3.855469 -7.160156 C 4.015625 -7.207031 4.152344 -7.253906 4.273438 -7.292969 C 4.332031 -7.3125 4.425781 -7.34375 4.554688 -7.394531 L 4.585938 -7.382812 L 4.574219 -6.828125 C 4.570312 -6.628906 4.570312 -6.421875 4.566406 -6.207031 C 4.5625 -5.992188 4.558594 -5.785156 4.558594 -5.574219 L 4.550781 -1.253906 C 4.550781 -1.023438 4.578125 -0.863281 4.632812 -0.773438 C 4.691406 -0.679688 4.839844 -0.632812 5.082031 -0.632812 C 5.121094 -0.632812 5.160156 -0.636719 5.199219 -0.636719 C 5.238281 -0.640625 5.277344 -0.644531 5.316406 -0.652344 L 5.316406 -0.476562 C 5.296875 -0.46875 5.039062 -0.378906 4.550781 -0.210938 L 3.71875 0.101562 L 3.679688 0.0546875 L 3.679688 -0.597656 C 3.484375 -0.382812 3.3125 -0.230469 3.167969 -0.136719 C 2.910156 0.0195312 2.613281 0.101562 2.273438 0.101562 C 1.675781 0.101562 1.1875 -0.132812 0.816406 -0.59375 C 0.445312 -1.058594 0.257812 -1.59375 0.257812 -2.207031 C 0.257812 -2.972656 0.480469 -3.628906 0.929688 -4.175781 C 1.375 -4.722656 1.921875 -5 2.566406 -5 Z M 2.761719 -0.472656 C 3.035156 -0.472656 3.257812 -0.550781 3.425781 -0.714844 C 3.597656 -0.875 3.679688 -1.03125 3.679688 -1.175781 L 3.679688 -3.445312 C 3.679688 -3.902344 3.558594 -4.226562 3.3125 -4.414062 C 3.066406 -4.601562 2.828125 -4.695312 2.597656 -4.695312 C 2.152344 -4.695312 1.808594 -4.5 1.558594 -4.105469 C 1.3125 -3.714844 1.191406 -3.230469 1.191406 -2.65625 C 1.191406 -2.089844 1.320312 -1.582031 1.585938 -1.136719 C 1.847656 -0.691406 2.238281 -0.472656 2.761719 -0.472656 Z "/>
</g>
</g>
<image id="source-89" x="0" y="0" width="0" height="0"/>
<mask id="mask-0">
<use xlink:href="#source-89"/>
</mask>
</defs>
<g fill="rgb(100%, 100%, 100%)" fill-opacity="1">
<use xlink:href="#glyph-0-0" x="30" y="28.125"/>
<use xlink:href="#glyph-0-1" x="37" y="28.125"/>
<use xlink:href="#glyph-0-2" x="40" y="28.125"/>
<use xlink:href="#glyph-0-3" x="45" y="28.125"/>
<use xlink:href="#glyph-0-4" x="50" y="28.125"/>
<use xlink:href="#glyph-0-5" x="55" y="28.125"/>
<use xlink:href="#glyph-0-6" x="59" y="28.125"/>
<use xlink:href="#glyph-0-7" x="61" y="28.125"/>
<use xlink:href="#glyph-0-8" x="69" y="28.125"/>
<use xlink:href="#glyph-0-9" x="72" y="28.125"/>
<use xlink:href="#glyph-0-3" x="77" y="28.125"/>
<use xlink:href="#glyph-0-10" x="82" y="28.125"/>
<use xlink:href="#glyph-0-5" x="87" y="28.125"/>
<use xlink:href="#glyph-0-4" x="91" y="28.125"/>
<use xlink:href="#glyph-0-6" x="96" y="28.125"/>
<use xlink:href="#glyph-0-11" x="99" y="28.125"/>
<use xlink:href="#glyph-0-1" x="106" y="28.125"/>
<use xlink:href="#glyph-0-12" x="109" y="28.125"/>
<use xlink:href="#glyph-0-13" x="113" y="28.125"/>
<use xlink:href="#glyph-0-4" x="118" y="28.125"/>
<use xlink:href="#glyph-0-8" x="123" y="28.125"/>
<use xlink:href="#glyph-0-1" x="126" y="28.125"/>
<use xlink:href="#glyph-0-14" x="129" y="28.125"/>
<use xlink:href="#glyph-0-3" x="134" y="28.125"/>
<use xlink:href="#glyph-0-15" x="139" y="28.125"/>
</g>
</svg>
